<?xml version="1.0" standalone="no"?>
<!DOCTYPE svg PUBLIC "-//W3C//DTD SVG 20010904//EN"
 "http://www.w3.org/TR/2001/REC-SVG-20010904/DTD/svg10.dtd">
<svg version="1.0" xmlns="http://www.w3.org/2000/svg"
 width="666.000000pt" height="1000.000000pt" viewBox="0 0 666.000000 1000.000000"
 preserveAspectRatio="xMidYMid meet">
<metadata>
Created by potrace 1.16, written by Peter Selinger 2001-2019
</metadata>
<g transform="translate(0.000000,1000.000000) scale(0.100000,-0.100000)"
fill="#000000" stroke="none">
<path d="M0 5000 l0 -5000 3330 0 3330 0 0 5000 0 5000 -3330 0 -3330 0 0
-5000z m3105 3370 c3 -6 -1 -7 -9 -4 -18 7 -21 14 -7 14 6 0 13 -4 16 -10z
m-394 -163 c-10 -9 -11 -8 -5 6 3 10 9 15 12 12 3 -3 0 -11 -7 -18z m-276 -36
c-6 -5 -25 10 -25 20 0 5 6 4 14 -3 8 -7 12 -15 11 -17z m250 11 c-3 -3 -11 0
-18 7 -9 10 -8 11 6 5 10 -3 15 -9 12 -12z m-525 -6 c0 -2 -8 -10 -17 -17 -16
-13 -17 -12 -4 4 13 16 21 21 21 13z m-130 -16 c-8 -5 -19 -10 -25 -10 -5 0
-3 5 5 10 8 5 20 10 25 10 6 0 3 -5 -5 -10z m1345 -189 c3 -5 2 -12 -3 -15 -5
-3 -9 1 -9 9 0 17 3 19 12 6z m76 -131 c5 0 9 -5 9 -11 0 -5 -5 -7 -10 -4 -13
8 -60 81 -60 92 1 5 12 -11 26 -34 14 -24 30 -43 35 -43z m-1456 -40 c-3 -5
-14 -10 -23 -9 -14 0 -13 2 3 9 27 11 27 11 20 0z m1478 -5 c4 -8 3 -16 -1
-19 -4 -3 -9 4 -9 15 -2 23 3 25 10 4z m-1858 -13 c-3 -3 -11 0 -18 7 -9 10
-8 11 6 5 10 -3 15 -9 12 -12z m79 -7 c11 -8 16 -15 10 -15 -5 0 -18 7 -28 15
-11 8 -16 15 -10 15 5 0 18 -7 28 -15z m1866 -67 c0 -12 -6 -9 -26 13 -19 22
-19 22 4 8 12 -8 22 -17 22 -21z m-25 -7 c3 -5 2 -12 -3 -15 -5 -3 -9 1 -9 9
0 17 3 19 12 6z m47 -23 c24 -23 77 -58 87 -58 5 0 12 -7 15 -16 5 -14 4 -15
-9 -4 -26 21 -30 -15 -6 -60 14 -27 20 -53 17 -75 -4 -33 -3 -34 16 -24 16 8
23 8 29 -2 5 -8 9 -9 9 -3 0 6 -9 19 -20 29 -16 14 -19 26 -15 47 4 17 2 28
-4 28 -6 0 -8 -8 -5 -17 5 -15 4 -15 -4 -3 -8 10 -8 18 0 27 7 9 7 13 -1 13
-6 0 -11 5 -11 12 0 6 11 1 24 -11 14 -13 22 -29 19 -37 -3 -7 2 -27 10 -44
16 -30 14 -128 -3 -159 -4 -8 -2 -29 6 -47 15 -37 13 -60 -18 -167 -18 -61
-27 -77 -39 -74 -9 3 -16 -1 -16 -7 1 -6 -3 -37 -7 -69 -10 -67 -4 -76 52 -93
24 -7 36 -15 33 -25 -4 -13 -16 -95 -26 -184 -8 -67 -4 -195 6 -189 9 5 59
-35 59 -48 0 -7 -5 -6 -14 1 -11 9 -16 9 -22 0 -4 -7 -3 -9 3 -6 12 8 83 -74
101 -116 8 -21 9 -34 2 -41 -7 -7 -10 -6 -10 2 0 7 -9 22 -20 34 -20 21 -20
21 -20 2 0 -12 -3 -24 -7 -28 -5 -4 -8 -17 -8 -29 0 -17 -9 -23 -45 -30 -44
-9 -64 -23 -54 -39 3 -4 -6 -8 -19 -8 -13 0 -27 -3 -31 -7 -17 -17 -80 -31
-98 -22 -13 7 -18 6 -18 -5 0 -10 -21 -16 -80 -21 -44 -4 -80 -11 -80 -16 0
-5 -18 -9 -40 -9 -31 0 -40 4 -40 18 0 14 -2 15 -10 2 -9 -13 -10 -13 -10 0 0
13 -1 13 -10 0 -9 -13 -10 -13 -10 0 0 13 -1 13 -10 0 -7 -11 -10 -11 -10 -2
0 9 -5 10 -19 3 -10 -6 -21 -7 -25 -4 -3 3 -6 1 -6 -6 0 -8 -5 -9 -17 -2 -27
14 -35 14 -44 -1 -7 -10 -9 -10 -9 2 0 13 -1 13 -10 0 -9 -13 -10 -13 -10 0 0
13 -1 13 -10 0 -5 -8 -10 -10 -10 -5 0 6 -22 10 -50 9 -27 0 -50 3 -50 7 0 4
-9 6 -20 4 -11 -2 -22 0 -25 5 -3 5 -30 6 -60 3 -31 -3 -55 -2 -55 3 0 6 14
11 32 12 44 4 49 12 6 12 -19 0 -38 -3 -42 -7 -10 -11 -36 -12 -36 -2 0 13
-34 11 -48 -3 -9 -9 -12 -9 -12 0 0 7 -7 12 -16 12 -8 0 -13 4 -10 8 2 4 -3 8
-12 9 -17 1 -89 10 -147 17 -16 2 -33 -1 -37 -7 -4 -6 -11 -8 -15 -3 -4 5 -2
11 5 13 29 11 8 18 -45 17 -63 -2 -112 14 -106 34 3 7 -4 12 -15 12 -12 0 -22
8 -24 17 -3 14 -15 18 -57 19 -29 1 -56 6 -60 10 -11 16 -50 34 -73 34 -13 0
-32 7 -42 15 -11 8 -32 15 -47 15 -16 0 -32 6 -36 13 -4 7 -29 25 -55 40 -34
20 -48 24 -52 14 -5 -9 -7 -9 -12 0 -4 9 -11 10 -24 3 -15 -8 -24 -3 -48 26
-16 20 -32 31 -36 26 -9 -15 -74 -24 -94 -13 -13 8 -10 9 16 5 20 -4 32 -2 32
4 0 6 8 9 18 6 14 -5 15 -4 2 5 -18 13 -140 12 -140 -2 0 -5 7 -6 16 -3 8 3
12 2 9 -4 -3 -6 2 -11 12 -11 17 -1 17 -2 0 -6 -34 -9 -6 -20 38 -15 25 2 45
0 45 -5 0 -11 -90 -10 -109 1 -11 7 -11 10 0 18 11 8 11 9 -1 5 -8 -2 -14 -11
-12 -21 2 -9 -2 -16 -8 -16 -6 0 -9 4 -6 9 3 5 -16 14 -42 20 -26 7 -69 23
-97 36 -27 13 -69 26 -92 30 -47 7 -55 19 -20 30 14 4 17 8 9 12 -7 3 -19 -1
-27 -7 -8 -7 -15 -9 -15 -4 0 5 -11 10 -25 10 -14 1 -22 -2 -19 -7 3 -5 14 -9
25 -9 10 0 19 -4 19 -10 0 -5 -23 -1 -50 10 -28 11 -61 20 -74 20 -13 0 -29 7
-36 15 -11 13 -9 19 7 38 10 12 24 34 31 50 11 26 32 37 32 17 0 -5 -5 -10
-11 -10 -5 0 -7 -5 -3 -11 4 -8 9 -8 17 0 9 9 8 17 -2 33 -11 17 -11 22 1 29
7 5 20 8 28 8 11 -1 10 -3 -3 -6 -12 -3 -15 -11 -11 -29 7 -28 -11 -55 -32
-47 -8 3 -14 -1 -14 -10 0 -9 -10 -23 -22 -31 -18 -13 -19 -16 -6 -16 9 0 24
10 32 22 9 12 19 19 22 15 4 -4 -3 -18 -16 -32 -27 -29 -15 -33 18 -6 14 12
20 25 16 36 -5 11 -2 16 7 15 36 -5 46 8 54 73 2 22 0 25 -10 17 -11 -9 -12
-7 -8 10 4 15 9 18 18 10 8 -6 16 -7 19 -2 9 15 64 12 70 -4 3 -8 -1 -14 -9
-14 -8 0 -15 4 -15 9 0 5 -9 7 -20 4 -36 -10 -29 -18 13 -18 29 0 41 4 39 13
-4 19 26 70 48 82 11 6 25 20 31 31 6 12 7 19 1 15 -5 -3 -9 4 -8 17 1 14 12
27 31 37 17 8 36 23 44 33 7 10 18 16 25 14 8 -3 12 28 13 105 l3 109 -38 35
c-27 25 -32 34 -19 34 19 0 22 13 7 41 -11 20 3 28 15 8 4 -6 17 -15 29 -20
20 -9 20 -9 -2 -5 -17 3 -22 1 -18 -9 3 -8 -2 -18 -10 -23 -12 -7 -10 -11 10
-21 13 -8 27 -24 30 -37 4 -13 10 -24 14 -24 14 0 47 28 41 35 -4 3 -14 -1
-23 -10 -14 -14 -16 -14 -16 -1 0 8 9 18 20 21 25 8 29 65 4 65 -8 0 -12 5 -8
11 3 6 0 15 -7 20 -10 6 -8 9 9 9 12 0 22 5 22 10 0 6 18 10 40 10 38 0 40 2
40 30 0 28 2 30 39 30 29 0 41 -5 44 -17 3 -10 3 2 0 27 -5 41 -4 43 9 26 15
-19 16 -18 29 9 21 43 41 45 36 4 -2 -19 -2 -26 0 -17 5 19 59 68 75 68 6 0 8
-7 4 -15 -5 -13 -2 -14 17 -4 12 6 34 22 48 36 l26 24 -5 -26 c-4 -25 -3 -26
17 -16 11 7 21 16 21 21 0 6 19 10 43 10 23 0 51 7 61 15 11 8 37 15 57 15 21
0 39 6 42 13 3 8 10 7 25 -7 22 -19 22 -19 28 12 7 32 24 45 24 17 0 -11 11
-15 40 -15 29 0 40 4 40 15 0 8 6 15 14 15 8 0 17 6 20 13 5 10 7 10 12 0 8
-18 34 -16 34 2 0 11 11 15 40 15 29 0 40 -4 40 -15 0 -11 11 -15 39 -15 22 0
41 -5 44 -12 2 -8 8 -9 13 -4 5 5 4 11 -3 13 -7 3 -13 16 -13 29 0 21 4 24 40
24 29 0 40 4 40 15 0 11 11 15 40 15 29 0 40 -4 40 -15 0 -13 21 -15 125 -15
121 0 127 -1 151 -25 14 -14 29 -25 34 -25 4 0 11 -6 14 -12 3 -7 3 -1 0 15
-6 26 -5 27 36 27 41 0 42 -1 36 -27 -3 -16 -3 -22 0 -15 8 18 84 16 84 -3 0
-8 4 -15 9 -15 5 0 14 7 21 15 17 21 130 21 130 0 0 -11 19 -15 88 -17 82 -3
87 -4 90 -25 2 -13 9 -23 17 -23 9 0 13 14 12 48 -2 45 -5 51 -44 80 -43 32
-59 40 -48 22 7 -11 -16 -50 -29 -50 -5 0 -1 8 8 19 9 10 16 22 15 27 -5 27
11 32 33 12z m-1982 -48 c0 -5 -5 -10 -11 -10 -5 0 -7 5 -4 10 3 6 8 10 11 10
2 0 4 -4 4 -10z m1974 -5 c-4 -8 -1 -15 7 -15 7 0 10 -2 7 -5 -3 -3 -12 -3
-21 1 -16 6 -13 34 4 34 4 0 6 -7 3 -15z m-1174 -10 c0 -10 -10 -15 -32 -15
-31 1 -32 1 -14 15 25 19 46 19 46 0z m-813 -27 c-3 -8 -6 -5 -6 6 -1 11 2 17
5 13 3 -3 4 -12 1 -19z m-25 -140 c-8 -8 -9 -4 -5 13 4 13 8 18 11 10 2 -7 -1
-18 -6 -23z m2143 12 c3 -5 1 -10 -4 -10 -6 0 -11 5 -11 10 0 6 2 10 4 10 3 0
8 -4 11 -10z m-2155 -55 c-7 -8 -16 -15 -21 -15 -5 0 -1 8 9 18 20 22 31 19
12 -3z m-38 3 c-9 -9 -9 -15 1 -27 9 -12 9 -13 0 -7 -7 4 -13 3 -13 -1 0 -5 6
-15 13 -23 6 -8 2 -6 -10 3 -22 19 -32 14 -28 -16 2 -9 -1 -15 -6 -11 -5 3 -7
10 -4 15 4 5 1 9 -5 9 -10 0 49 69 60 70 2 0 -1 -5 -8 -12z m68 -12 c0 -3 -4
-8 -10 -11 -5 -3 -10 -1 -10 4 0 6 5 11 10 11 6 0 10 -2 10 -4z m12 -28 c-7
-7 -12 -8 -12 -2 0 14 12 26 19 19 2 -3 -1 -11 -7 -17z m58 2 c0 -5 -4 -10
-10 -10 -5 0 -10 5 -10 10 0 6 5 10 10 10 6 0 10 -4 10 -10z m-93 -6 c-3 -3
-12 -4 -19 -1 -8 3 -5 6 6 6 11 1 17 -2 13 -5z m33 -124 c0 -5 -11 -10 -25
-10 -14 0 -25 5 -25 10 0 6 11 10 25 10 14 0 25 -4 25 -10z m162 -797 c0 -10
2 -23 2 -30 2 -23 25 -38 38 -25 17 17 25 15 32 -10 6 -23 80 -75 98 -70 5 1
7 -2 3 -8 -4 -7 -18 -4 -38 10 -18 12 -45 26 -60 32 -22 8 -26 14 -21 32 6 18
5 19 -10 7 -14 -12 -21 -10 -51 10 -21 15 -35 32 -34 44 0 19 1 18 11 -2 15
-31 30 -29 18 2 -6 16 -6 25 0 25 6 0 11 -8 12 -17z m142 -55 c-3 -4 3 -8 13
-9 14 0 15 -2 3 -6 -8 -3 -18 -10 -21 -15 -3 -5 -16 -4 -30 1 -24 10 -24 10 6
11 l30 2 -32 9 c-42 12 -41 15 1 15 19 0 32 -4 30 -8z m46 -130 c0 -13 -23 -5
-28 10 -2 7 2 10 12 6 9 -3 16 -11 16 -16z m22 -43 c2 3 5 -2 5 -10 0 -21 -14
-19 -27 4 -14 28 -12 39 4 19 7 -10 15 -16 18 -13z m1898 5 c-6 -11 -12 -20
-14 -20 -2 0 -2 9 1 20 3 11 9 20 15 20 5 0 4 -9 -2 -20z m13 -65 c-7 -21 -12
-19 -10 4 0 11 5 18 9 15 4 -3 5 -11 1 -19z m-1833 -37 c0 -4 -5 -8 -12 -8 -6
0 -8 3 -5 6 3 4 2 16 -4 28 -10 20 -10 20 5 2 9 -11 16 -23 16 -28z m1814 -22
c-3 -15 -8 -25 -11 -23 -2 3 -1 17 3 31 3 15 8 25 11 23 2 -3 1 -17 -3 -31z
m-371 -3 c-7 -2 -19 -2 -25 0 -7 3 -2 5 12 5 14 0 19 -2 13 -5z m-16 -149 c-3
-3 -12 -4 -19 -1 -8 3 -5 6 6 6 11 1 17 -2 13 -5z m316 -1 c-35 -2 -91 -2
-125 0 -35 2 -7 3 62 3 69 0 97 -1 63 -3z m-765 -92 c3 -8 -3 -8 -23 -1 -15 6
-31 7 -37 4 -6 -4 -8 -2 -4 4 8 14 59 9 64 -7z m62 -1 c0 -5 -11 -10 -25 -10
-14 0 -25 5 -25 10 0 6 11 10 25 10 14 0 25 -4 25 -10z m-145 -10 c-3 -5 -17
-10 -31 -10 -13 0 -24 5 -24 10 0 6 14 10 31 10 17 0 28 -4 24 -10z m55 -30
c0 -5 -8 -10 -17 -10 -15 0 -16 2 -3 10 19 12 20 12 20 0z m81 -23 c-13 -25
-7 -24 -140 -19 -67 3 -44 12 45 18 51 3 82 10 89 19 15 22 20 8 6 -18z m-168
16 c-7 -2 -21 -2 -30 0 -10 3 -4 5 12 5 17 0 24 -2 18 -5z m113 -71 c-27 -2
-52 0 -57 5 -4 4 18 6 49 3 l57 -5 -49 -3z m-123 -9 c-7 -2 -19 -2 -25 0 -7 3
-2 5 12 5 14 0 19 -2 13 -5z m63 -21 c5 2 10 0 12 -4 1 -5 0 -8 -3 -8 -3 0
-11 0 -18 0 -7 0 -18 10 -26 23 -14 22 -13 22 6 4 11 -10 24 -17 29 -15z m-78
6 c17 0 32 -4 32 -9 0 -6 -4 -8 -9 -5 -5 3 -14 -1 -21 -9 -7 -8 -20 -15 -29
-14 -12 0 -13 2 -2 6 9 4 0 12 -25 25 -35 17 -36 18 -9 12 17 -3 45 -6 63 -6z
m167 -8 c3 -5 13 -6 23 -3 13 4 12 1 -5 -16 -26 -25 -37 -27 -29 -5 5 13 1 15
-17 10 -17 -4 -24 -1 -24 9 0 17 42 21 52 5z m-105 -30 c0 -5 -4 -10 -10 -10
-5 0 -10 5 -10 10 0 6 5 10 10 10 6 0 10 -4 10 -10z m185 0 c-3 -5 -12 -10
-18 -10 -7 0 -6 4 3 10 19 12 23 12 15 0z m-108 -6 c-3 -3 -12 -4 -19 -1 -8 3
-5 6 6 6 11 1 17 -2 13 -5z m-50 -51 c-8 -7 -35 9 -41 23 -4 11 0 11 20 -2 13
-9 23 -18 21 -21z m60 19 c0 -10 -10 -18 -24 -18 l-23 -2 23 19 c27 23 26 23
24 1z m166 1 c-7 -2 -19 -2 -25 0 -7 3 -2 5 12 5 14 0 19 -2 13 -5z m-231 -75
c-7 -7 -12 -8 -12 -2 0 14 12 26 19 19 2 -3 -1 -11 -7 -17z m-47 2 c-3 -5 -12
-10 -18 -10 -7 0 -6 4 3 10 19 12 23 12 15 0z m102 4 c-3 -3 -12 -4 -19 -1 -8
3 -5 6 6 6 11 1 17 -2 13 -5z m103 -14 c-67 -15 -110 -19 -110 -10 0 12 27 18
90 18 49 0 51 -1 20 -8z m60 0 c0 -5 -4 -10 -10 -10 -5 0 -10 5 -10 10 0 6 5
10 10 10 6 0 10 -4 10 -10z m-390 -20 c0 -5 -2 -10 -4 -10 -3 0 -8 5 -11 10
-3 6 -1 10 4 10 6 0 11 -4 11 -10z m169 1 c12 -8 9 -11 -12 -17 -16 -3 -31 -4
-34 0 -4 3 1 6 11 6 9 0 14 5 11 10 -8 12 5 13 24 1z m131 -5 c0 -9 -40 -13
-46 -5 -3 5 6 9 20 9 14 0 26 -2 26 -4z m-355 -16 c3 -5 2 -10 -4 -10 -5 0
-13 5 -16 10 -3 6 -2 10 4 10 5 0 13 -4 16 -10z m154 -6 c3 -3 -1 -10 -7 -16
-9 -9 -12 -9 -12 0 0 7 -9 12 -19 12 -11 0 -23 5 -27 11 -4 8 4 9 27 4 19 -4
36 -9 38 -11z m86 -14 c-3 -5 -13 -10 -21 -10 -8 0 -14 5 -14 10 0 6 9 10 21
10 11 0 17 -4 14 -10z m70 0 c-4 -6 5 -10 19 -10 14 0 26 -4 26 -9 0 -4 -19
-5 -42 -1 -23 5 -48 6 -55 3 -7 -3 -13 -3 -13 1 0 3 15 10 33 15 17 5 33 10
35 10 2 1 0 -3 -3 -9z m100 0 c-11 -5 -27 -9 -35 -9 -9 0 -8 4 5 9 11 5 27 9
35 9 9 0 8 -4 -5 -9z m-228 -26 c-3 -3 -12 -4 -19 -1 -8 3 -5 6 6 6 11 1 17
-2 13 -5z m-37 -114 c0 -15 -47 -23 -67 -11 -15 10 -14 10 8 5 15 -3 30 -1 33
5 9 14 26 14 26 1z m80 -20 c0 -5 -2 -10 -4 -10 -3 0 -8 5 -11 10 -3 6 -1 10
4 10 6 0 11 -4 11 -10z m103 -17 c-7 -2 -21 -2 -30 0 -10 3 -4 5 12 5 17 0 24
-2 18 -5z m14 -109 c-3 -3 -12 -4 -19 -1 -8 3 -5 6 6 6 11 1 17 -2 13 -5z
m-107 -64 c0 -5 -2 -10 -4 -10 -3 0 -8 5 -11 10 -3 6 -1 10 4 10 6 0 11 -4 11
-10z m-37 -7 c-7 -2 -19 -2 -25 0 -7 3 -2 5 12 5 14 0 19 -2 13 -5z m237 -9
c0 -2 -13 -4 -30 -4 -16 0 -30 4 -30 8 0 5 14 7 30 4 17 -2 30 -6 30 -8z m-73
0 c-3 -3 -12 -4 -19 -1 -8 3 -5 6 6 6 11 1 17 -2 13 -5z m113 -8 c0 -2 -7 -7
-16 -10 -8 -3 -12 -2 -9 4 6 10 25 14 25 6z m-143 -16 c-16 -5 -38 -5 -50 0
-17 7 -10 9 28 9 43 -1 46 -2 22 -9z m125 -37 c-6 -2 -10 -9 -7 -13 3 -5 -7
-7 -22 -6 -47 6 -49 8 -13 16 42 9 60 10 42 3z m-216 -35 c-22 -12 -46 -3 -46
16 0 12 5 13 31 4 27 -9 29 -12 15 -20z m-204 10 c-9 -9 -15 -9 -24 0 -9 9 -7
12 12 12 19 0 21 -3 12 -12z m136 6 c-12 -11 -66 -15 -73 -4 -4 6 9 10 36 10
23 0 40 -3 37 -6z m-124 -39 c3 -8 1 -15 -3 -15 -5 0 -11 7 -15 15 -3 8 -1 15
3 15 5 0 11 -7 15 -15z m256 -25 c0 -5 -8 -10 -17 -10 -15 0 -16 2 -3 10 19
12 20 12 20 0z m-80 -15 c0 -9 -9 -15 -22 -14 -17 1 -19 2 -5 6 9 2 17 9 17
14 0 5 2 9 5 9 3 0 5 -7 5 -15z m40 0 c0 -8 -7 -15 -16 -15 -14 0 -14 3 -4 15
7 8 14 15 16 15 2 0 4 -7 4 -15z m-100 -5 c0 -5 -6 -10 -14 -10 -8 0 -18 5
-21 10 -3 6 3 10 14 10 12 0 21 -4 21 -10z m250 -10 c-8 -5 -22 -10 -30 -10
-13 0 -13 1 0 10 8 5 22 10 30 10 13 0 13 -1 0 -10z m-40 -31 c0 -4 -7 -6 -15
-3 -8 4 -15 10 -15 15 0 4 7 6 15 3 8 -4 15 -10 15 -15z m77 5 c-3 -3 -12 -4
-19 -1 -8 3 -5 6 6 6 11 1 17 -2 13 -5z m-282 -26 c3 -3 -1 -8 -9 -11 -8 -3
-17 0 -19 8 -5 13 16 15 28 3z m42 -4 c-3 -3 -12 -4 -19 -1 -8 3 -5 6 6 6 11
1 17 -2 13 -5z m46 -1 c-7 -2 -19 -2 -25 0 -7 3 -2 5 12 5 14 0 19 -2 13 -5z
m-216 -39 c-3 -3 -12 -4 -19 -1 -8 3 -5 6 6 6 11 1 17 -2 13 -5z m135 -56 c-9
-9 -42 -1 -42 12 0 4 12 5 26 2 15 -3 22 -8 16 -14z m168 -612 c0 -11 -19 -15
-25 -6 -3 5 1 10 9 10 9 0 16 -2 16 -4z m-40 -46 c0 -5 -4 -10 -10 -10 -5 0
-10 5 -10 10 0 6 5 10 10 10 6 0 10 -4 10 -10z m-15 -50 c3 -5 -1 -10 -9 -10
-9 0 -16 5 -16 10 0 6 4 10 9 10 6 0 13 -4 16 -10z m-210 -40 c3 -6 -4 -10
-17 -10 -18 0 -20 2 -8 10 19 12 18 12 25 0z m70 0 c3 -5 2 -10 -4 -10 -5 0
-13 5 -16 10 -3 6 -2 10 4 10 5 0 13 -4 16 -10z m60 -10 c-3 -5 -14 -10 -23
-10 -15 0 -15 2 -2 10 20 13 33 13 25 0z m282 4 c-3 -3 -12 -4 -19 -1 -8 3 -5
6 6 6 11 1 17 -2 13 -5z m-82 -15 c-7 -11 -35 -12 -35 -1 0 4 9 8 20 9 11 1
18 -2 15 -8z m-421 -25 c3 -8 2 -12 -4 -9 -6 3 -10 10 -10 16 0 14 7 11 14 -7z
m116 -9 c0 -1 -14 -5 -32 -7 -27 -4 -29 -3 -14 8 15 10 46 10 46 -1z m40 -5
c0 -5 13 -10 29 -10 16 0 32 -6 35 -12 5 -10 7 -10 12 0 4 8 11 5 25 -10 10
-13 18 -18 19 -13 0 6 -6 17 -12 23 -10 10 -10 15 2 22 8 5 20 10 25 10 6 0 4
-4 -4 -9 -7 -5 -10 -14 -7 -20 4 -6 12 -9 17 -6 5 3 6 -1 3 -9 -3 -9 -1 -16 5
-16 5 0 15 -9 21 -19 10 -19 9 -19 -17 -5 -16 7 -38 14 -50 14 -13 0 -23 5
-23 10 0 6 -22 10 -50 10 -27 0 -50 5 -50 10 0 6 6 10 13 10 7 0 4 7 -7 15
-17 13 -18 15 -3 15 9 0 17 -4 17 -10z m-48 -32 c-9 -9 -15 -9 -24 0 -9 9 -7
12 12 12 19 0 21 -3 12 -12z m251 -8 c3 -13 0 -20 -8 -20 -17 0 -28 17 -20 30
10 16 22 12 28 -10z m-328 -30 c8 -13 -5 -13 -25 0 -13 8 -13 10 2 10 9 0 20
-4 23 -10z m148 -21 l52 -2 -41 -6 c-22 -4 -53 -6 -70 -5 -16 1 -39 3 -51 3
-13 1 -22 7 -20 14 3 18 50 25 65 10 7 -7 37 -14 65 -14z m24 25 c-3 -3 -12
-4 -19 -1 -8 3 -5 6 6 6 11 1 17 -2 13 -5z m58 -14 c3 -5 1 -10 -4 -10 -6 0
-11 5 -11 10 0 6 2 10 4 10 3 0 8 -4 11 -10z m220 0 c-3 -5 -12 -10 -18 -10
-7 0 -6 4 3 10 19 12 23 12 15 0z m-55 -5 c0 -7 -30 -13 -34 -7 -3 4 4 9 15 9
10 1 19 0 19 -2z m-260 -45 c-12 -8 -12 -10 -1 -10 11 0 11 -3 1 -15 -7 -8
-16 -13 -20 -10 -5 3 -6 -5 -3 -16 6 -20 3 -21 -30 -15 -32 6 -36 5 -31 -11 5
-13 2 -12 -10 5 -11 14 -28 22 -46 22 -16 0 -32 5 -36 11 -5 9 6 10 39 7 33
-4 45 -2 40 6 -3 6 -3 8 2 4 4 -4 15 -2 22 4 12 10 14 9 11 -4 -1 -9 2 -16 7
-15 6 1 9 5 8 10 -2 4 4 7 12 7 8 0 15 7 15 15 0 8 8 15 18 15 14 0 15 -2 2
-10z m-130 -8 c0 -4 -16 -6 -35 -4 -19 2 -35 6 -35 8 0 2 16 4 35 4 19 0 35
-4 35 -8z m220 -56 c0 -11 -19 -15 -25 -6 -3 5 1 10 9 10 9 0 16 -2 16 -4z
m-277 -13 c-7 -2 -19 -2 -25 0 -7 3 -2 5 12 5 14 0 19 -2 13 -5z m74 1 c-3 -3
-12 -4 -19 -1 -8 3 -5 6 6 6 11 1 17 -2 13 -5z m388 -14 c-27 -12 -43 -12 -25
0 8 5 22 9 30 9 10 0 8 -3 -5 -9z m-75 -10 c0 -5 -10 -10 -22 -9 -22 0 -22 1
-3 9 11 5 21 9 23 9 1 1 2 -3 2 -9z m-240 -20 c0 -5 -5 -10 -11 -10 -5 0 -7 5
-4 10 3 6 8 10 11 10 2 0 4 -4 4 -10z m65 0 c3 -5 2 -10 -4 -10 -5 0 -13 5
-16 10 -3 6 -2 10 4 10 5 0 13 -4 16 -10z m75 6 c0 -9 -39 -13 -51 -5 -10 6
-4 9 19 9 17 0 32 -2 32 -4z m-330 -30 c0 -3 -4 -8 -10 -11 -5 -3 -10 -1 -10
4 0 6 5 11 10 11 6 0 10 -2 10 -4z m403 -13 c-7 -2 -19 -2 -25 0 -7 3 -2 5 12
5 14 0 19 -2 13 -5z m-98 -33 c-3 -5 -14 -10 -23 -10 -15 0 -15 2 -2 10 20 13
33 13 25 0z m52 4 c-3 -3 -12 -4 -19 -1 -8 3 -5 6 6 6 11 1 17 -2 13 -5z
m-144 -11 c-7 -2 -19 -2 -25 0 -7 3 -2 5 12 5 14 0 19 -2 13 -5z m287 -18 c-7
-8 -18 -15 -24 -15 -6 0 -2 7 8 15 25 19 32 19 16 0z m70 1 c0 -9 -30 -14 -35
-6 -4 6 3 10 14 10 12 0 21 -2 21 -4z m-305 -26 c13 -5 14 -9 5 -9 -8 0 -24 4
-35 9 -13 5 -14 9 -5 9 8 0 24 -4 35 -9z m-32 -27 c-7 -2 -19 -2 -25 0 -7 3
-2 5 12 5 14 0 19 -2 13 -5z m74 -9 c-3 -3 -12 -4 -19 -1 -8 3 -5 6 6 6 11 1
17 -2 13 -5z m463 -124 c0 -5 -5 -10 -11 -10 -5 0 -7 5 -4 10 3 6 8 10 11 10
2 0 4 -4 4 -10z m290 7 c0 -2 -12 -14 -27 -28 l-28 -24 24 28 c23 25 31 32 31
24z m2710 -19 c0 -6 -6 -5 -15 2 -8 7 -15 14 -15 16 0 2 7 1 15 -2 8 -4 15
-11 15 -16z m186 -23 c19 -18 22 -25 11 -25 -8 0 -17 -5 -19 -12 -3 -9 -12 -9
-36 1 -45 19 -52 35 -13 29 31 -5 45 15 19 25 -10 4 -10 6 -1 6 7 1 24 -10 39
-24z m-110 -3 c-10 -2 -22 0 -28 6 -6 6 0 7 19 4 21 -5 23 -7 9 -10z m-1551
-102 c3 -6 -1 -7 -9 -4 -18 7 -21 14 -7 14 6 0 13 -4 16 -10z m1234 -449 c-1
-20 -2 -22 -6 -6 -3 10 -12 31 -21 45 l-16 25 22 -19 c13 -11 22 -30 21 -45z
m21 49 c8 -5 11 -10 5 -10 -5 0 -17 5 -25 10 -8 5 -10 10 -5 10 6 0 17 -5 25
-10z m50 -20 c8 -5 11 -10 5 -10 -5 0 -17 5 -25 10 -8 5 -10 10 -5 10 6 0 17
-5 25 -10z m23 -67 c-7 -2 -21 -2 -30 0 -10 3 -4 5 12 5 17 0 24 -2 18 -5z"/>
<path d="M2711 7574 c0 -11 3 -14 6 -6 3 7 2 16 -1 19 -3 4 -6 -2 -5 -13z"/>
<path d="M1557 7136 c-4 -11 -1 -13 10 -9 12 5 14 3 8 -7 -5 -8 -4 -11 3 -6
12 7 5 36 -8 36 -4 0 -10 -7 -13 -14z"/>
<path d="M1571 7074 c0 -11 3 -14 6 -6 3 7 2 16 -1 19 -3 4 -6 -2 -5 -13z"/>
<path d="M1540 7073 c0 -4 5 -15 10 -23 8 -13 10 -13 10 2 0 9 -4 20 -10 23
-5 3 -10 3 -10 -2z"/>
<path d="M1564 7025 c-3 -8 -4 -20 -2 -27 3 -7 7 -1 10 15 6 29 1 36 -8 12z"/>
<path d="M1505 6939 c-4 -6 -5 -12 -2 -15 2 -3 7 2 10 11 7 17 1 20 -8 4z"/>
<path d="M1450 6905 c-7 -9 -10 -18 -6 -22 3 -3 6 -1 6 6 0 7 4 10 9 7 13 -8
42 4 35 15 -8 14 -30 11 -44 -6z"/>
<path d="M1400 6800 c-9 -6 -10 -10 -3 -10 6 0 15 5 18 10 8 12 4 12 -15 0z"/>
<path d="M1435 6559 c-4 -6 -5 -12 -2 -15 2 -3 7 2 10 11 7 17 1 20 -8 4z"/>
<path d="M1338 6553 c6 -2 18 -2 25 0 6 3 1 5 -13 5 -14 0 -19 -2 -12 -5z"/>
<path d="M1328 6533 c7 -3 16 -2 19 1 4 3 -2 6 -13 5 -11 0 -14 -3 -6 -6z"/>
<path d="M1404 6505 c11 -8 24 -15 30 -15 5 0 1 7 -10 15 -10 8 -23 14 -29 14
-5 0 -1 -6 9 -14z"/>
<path d="M3267 6448 c-23 -40 -70 -84 -127 -119 -76 -47 -212 -49 -299 -4 -26
13 -69 45 -96 72 -26 26 -43 38 -36 26 16 -31 86 -89 139 -113 62 -29 163 -37
229 -17 87 26 170 93 209 168 22 44 9 34 -19 -13z"/>
<path d="M1525 6463 c11 -12 18 -14 26 -6 8 8 7 13 -2 18 -8 5 -10 4 -5 -3 9
-15 -6 -16 -22 -2 -7 5 -5 2 3 -7z"/>
<path d="M3771 6346 c-9 -11 -9 -16 1 -22 7 -4 10 -4 6 1 -4 4 -3 14 3 22 6 7
9 13 6 13 -2 0 -10 -6 -16 -14z"/>
<path d="M3796 6342 c-3 -6 -1 -14 5 -17 15 -10 25 3 12 16 -7 7 -13 7 -17 1z"/>
<path d="M2898 3963 c7 -3 16 -2 19 1 4 3 -2 6 -13 5 -11 0 -14 -3 -6 -6z"/>
</g>
</svg>
